<svg width="126" height="27" viewBox="0 0 126 27" fill="none" xmlns="http://www.w3.org/2000/svg">
<path d="M125.902 24.1443L123.889 24.1443L123.889 2.87156L125.902 2.87156L125.902 24.1443Z" fill="url(#paint0_linear_17016_1401)"/>
<rect x="120.534" y="21.3975" width="2.01383" height="15.9545" transform="rotate(-180 120.534 21.3975)" fill="url(#paint1_linear_17016_1401)"/>
<rect x="115.162" y="20.4805" width="2.01383" height="12.4091" transform="rotate(-180 115.162 20.4805)" fill="url(#paint2_linear_17016_1401)"/>
<rect x="109.793" y="22.3132" width="2.01383" height="17.7273" transform="rotate(-180 109.793 22.3132)" fill="url(#paint3_linear_17016_1401)"/>
<rect x="104.425" y="20.4805" width="2.01383" height="12.4091" transform="rotate(-180 104.425 20.4805)" fill="url(#paint4_linear_17016_1401)"/>
<rect x="99.0532" y="18.6492" width="2.01383" height="8.86364" transform="rotate(-180 99.0532 18.6492)" fill="url(#paint5_linear_17016_1401)"/>
<rect x="93.6846" y="19.5649" width="2.01383" height="10.6364" transform="rotate(-180 93.6846 19.5649)" fill="url(#paint6_linear_17016_1401)"/>
<rect x="88.313" y="17.7336" width="2.01383" height="7.09091" transform="rotate(-180 88.313 17.7336)" fill="url(#paint7_linear_17016_1401)"/>
<rect x="82.9414" y="16.8181" width="2.01383" height="5.31818" transform="rotate(-180 82.9414 16.8181)" fill="url(#paint8_linear_17016_1401)"/>
<rect x="77.5698" y="18.6492" width="2.01383" height="8.86364" transform="rotate(-180 77.5698 18.6492)" fill="url(#paint9_linear_17016_1401)"/>
<rect x="72.2012" y="23.2288" width="2.01383" height="19.5" transform="rotate(-180 72.2012 23.2288)" fill="url(#paint10_linear_17016_1401)"/>
<rect x="66.8325" y="25.9771" width="2.01383" height="24.8182" transform="rotate(-180 66.8325 25.9771)" fill="url(#paint11_linear_17016_1401)"/>
<rect x="61.4609" y="26.8926" width="2.01383" height="26.5909" transform="rotate(-180 61.4609 26.8926)" fill="url(#paint12_linear_17016_1401)"/>
<rect x="56.0923" y="24.1443" width="2.01383" height="21.2727" transform="rotate(-180 56.0923 24.1443)" fill="url(#paint13_linear_17016_1401)"/>
<rect x="50.7207" y="21.3975" width="2.01383" height="15.9545" transform="rotate(-180 50.7207 21.3975)" fill="url(#paint14_linear_17016_1401)"/>
<rect x="45.3521" y="20.4805" width="2.01383" height="12.4091" transform="rotate(-180 45.3521 20.4805)" fill="url(#paint15_linear_17016_1401)"/>
<rect x="39.9805" y="22.3132" width="2.01383" height="17.7273" transform="rotate(-180 39.9805 22.3132)" fill="url(#paint16_linear_17016_1401)"/>
<rect x="34.6118" y="20.4805" width="2.01383" height="12.4091" transform="rotate(-180 34.6118 20.4805)" fill="url(#paint17_linear_17016_1401)"/>
<rect x="29.2402" y="18.6492" width="2.01383" height="8.86364" transform="rotate(-180 29.2402 18.6492)" fill="url(#paint18_linear_17016_1401)"/>
<rect x="23.8687" y="19.5649" width="2.01383" height="10.6364" transform="rotate(-180 23.8687 19.5649)" fill="url(#paint19_linear_17016_1401)"/>
<rect x="18.5" y="17.7336" width="2.01383" height="7.09091" transform="rotate(-180 18.5 17.7336)" fill="url(#paint20_linear_17016_1401)"/>
<rect x="13.1284" y="20.4805" width="2.01383" height="12.4091" transform="rotate(-180 13.1284 20.4805)" fill="url(#paint21_linear_17016_1401)"/>
<rect x="7.75977" y="22.3132" width="2.01383" height="17.7273" transform="rotate(-180 7.75977 22.3132)" fill="url(#paint22_linear_17016_1401)"/>
<rect x="2.38818" y="20.4805" width="2.01383" height="12.4091" transform="rotate(-180 2.38818 20.4805)" fill="url(#paint23_linear_17016_1401)"/>
<defs>
<linearGradient id="paint0_linear_17016_1401" x1="124.895" y1="24.1443" x2="124.895" y2="2.87156" gradientUnits="userSpaceOnUse">
<stop stop-color="#14FF00" stop-opacity="0.55"/>
<stop offset="1" stop-color="#00F0FF" stop-opacity="0.62"/>
</linearGradient>
<linearGradient id="paint1_linear_17016_1401" x1="121.541" y1="21.3975" x2="121.541" y2="37.352" gradientUnits="userSpaceOnUse">
<stop stop-color="#14FF00" stop-opacity="0.55"/>
<stop offset="1" stop-color="#00F0FF" stop-opacity="0.62"/>
</linearGradient>
<linearGradient id="paint2_linear_17016_1401" x1="116.169" y1="20.4805" x2="116.169" y2="32.8896" gradientUnits="userSpaceOnUse">
<stop stop-color="#14FF00" stop-opacity="0.55"/>
<stop offset="1" stop-color="#00F0FF" stop-opacity="0.62"/>
</linearGradient>
<linearGradient id="paint3_linear_17016_1401" x1="110.8" y1="22.3132" x2="110.8" y2="40.0405" gradientUnits="userSpaceOnUse">
<stop stop-color="#14FF00" stop-opacity="0.55"/>
<stop offset="1" stop-color="#00F0FF" stop-opacity="0.62"/>
</linearGradient>
<linearGradient id="paint4_linear_17016_1401" x1="105.432" y1="20.4805" x2="105.432" y2="32.8896" gradientUnits="userSpaceOnUse">
<stop stop-color="#14FF00" stop-opacity="0.55"/>
<stop offset="1" stop-color="#00F0FF" stop-opacity="0.62"/>
</linearGradient>
<linearGradient id="paint5_linear_17016_1401" x1="100.06" y1="18.6492" x2="100.06" y2="27.5128" gradientUnits="userSpaceOnUse">
<stop stop-color="#14FF00" stop-opacity="0.55"/>
<stop offset="1" stop-color="#00F0FF" stop-opacity="0.62"/>
</linearGradient>
<linearGradient id="paint6_linear_17016_1401" x1="94.6915" y1="19.5649" x2="94.6915" y2="30.2013" gradientUnits="userSpaceOnUse">
<stop stop-color="#14FF00" stop-opacity="0.55"/>
<stop offset="1" stop-color="#00F0FF" stop-opacity="0.62"/>
</linearGradient>
<linearGradient id="paint7_linear_17016_1401" x1="89.3199" y1="17.7336" x2="89.3199" y2="24.8246" gradientUnits="userSpaceOnUse">
<stop stop-color="#14FF00" stop-opacity="0.55"/>
<stop offset="1" stop-color="#00F0FF" stop-opacity="0.62"/>
</linearGradient>
<linearGradient id="paint8_linear_17016_1401" x1="83.9483" y1="16.8181" x2="83.9483" y2="22.1363" gradientUnits="userSpaceOnUse">
<stop stop-color="#14FF00" stop-opacity="0.55"/>
<stop offset="1" stop-color="#00F0FF" stop-opacity="0.62"/>
</linearGradient>
<linearGradient id="paint9_linear_17016_1401" x1="78.5767" y1="18.6492" x2="78.5767" y2="27.5128" gradientUnits="userSpaceOnUse">
<stop stop-color="#14FF00" stop-opacity="0.55"/>
<stop offset="1" stop-color="#00F0FF" stop-opacity="0.62"/>
</linearGradient>
<linearGradient id="paint10_linear_17016_1401" x1="73.2081" y1="23.2288" x2="73.2081" y2="42.7288" gradientUnits="userSpaceOnUse">
<stop stop-color="#14FF00" stop-opacity="0.55"/>
<stop offset="1" stop-color="#00F0FF" stop-opacity="0.62"/>
</linearGradient>
<linearGradient id="paint11_linear_17016_1401" x1="67.8394" y1="25.9771" x2="67.8394" y2="50.7952" gradientUnits="userSpaceOnUse">
<stop stop-color="#14FF00" stop-opacity="0.55"/>
<stop offset="1" stop-color="#00F0FF" stop-opacity="0.62"/>
</linearGradient>
<linearGradient id="paint12_linear_17016_1401" x1="62.4679" y1="26.8926" x2="62.4679" y2="53.4835" gradientUnits="userSpaceOnUse">
<stop stop-color="#14FF00" stop-opacity="0.55"/>
<stop offset="1" stop-color="#00F0FF" stop-opacity="0.62"/>
</linearGradient>
<linearGradient id="paint13_linear_17016_1401" x1="57.0992" y1="24.1443" x2="57.0992" y2="45.417" gradientUnits="userSpaceOnUse">
<stop stop-color="#14FF00" stop-opacity="0.55"/>
<stop offset="1" stop-color="#00F0FF" stop-opacity="0.62"/>
</linearGradient>
<linearGradient id="paint14_linear_17016_1401" x1="51.7276" y1="21.3975" x2="51.7276" y2="37.352" gradientUnits="userSpaceOnUse">
<stop stop-color="#14FF00" stop-opacity="0.55"/>
<stop offset="1" stop-color="#00F0FF" stop-opacity="0.62"/>
</linearGradient>
<linearGradient id="paint15_linear_17016_1401" x1="46.359" y1="20.4805" x2="46.359" y2="32.8896" gradientUnits="userSpaceOnUse">
<stop stop-color="#14FF00" stop-opacity="0.55"/>
<stop offset="1" stop-color="#00F0FF" stop-opacity="0.62"/>
</linearGradient>
<linearGradient id="paint16_linear_17016_1401" x1="40.9874" y1="22.3132" x2="40.9874" y2="40.0405" gradientUnits="userSpaceOnUse">
<stop stop-color="#14FF00" stop-opacity="0.55"/>
<stop offset="1" stop-color="#00F0FF" stop-opacity="0.62"/>
</linearGradient>
<linearGradient id="paint17_linear_17016_1401" x1="35.6187" y1="20.4805" x2="35.6187" y2="32.8896" gradientUnits="userSpaceOnUse">
<stop stop-color="#14FF00" stop-opacity="0.55"/>
<stop offset="1" stop-color="#00F0FF" stop-opacity="0.62"/>
</linearGradient>
<linearGradient id="paint18_linear_17016_1401" x1="30.2471" y1="18.6492" x2="30.2471" y2="27.5128" gradientUnits="userSpaceOnUse">
<stop stop-color="#14FF00" stop-opacity="0.55"/>
<stop offset="1" stop-color="#00F0FF" stop-opacity="0.62"/>
</linearGradient>
<linearGradient id="paint19_linear_17016_1401" x1="24.8756" y1="19.5649" x2="24.8756" y2="30.2013" gradientUnits="userSpaceOnUse">
<stop stop-color="#14FF00" stop-opacity="0.55"/>
<stop offset="1" stop-color="#00F0FF" stop-opacity="0.62"/>
</linearGradient>
<linearGradient id="paint20_linear_17016_1401" x1="19.5069" y1="17.7336" x2="19.5069" y2="24.8246" gradientUnits="userSpaceOnUse">
<stop stop-color="#14FF00" stop-opacity="0.55"/>
<stop offset="1" stop-color="#00F0FF" stop-opacity="0.62"/>
</linearGradient>
<linearGradient id="paint21_linear_17016_1401" x1="14.1353" y1="20.4805" x2="14.1353" y2="32.8896" gradientUnits="userSpaceOnUse">
<stop stop-color="#14FF00" stop-opacity="0.55"/>
<stop offset="1" stop-color="#00F0FF" stop-opacity="0.62"/>
</linearGradient>
<linearGradient id="paint22_linear_17016_1401" x1="8.76668" y1="22.3132" x2="8.76668" y2="40.0405" gradientUnits="userSpaceOnUse">
<stop stop-color="#14FF00" stop-opacity="0.55"/>
<stop offset="1" stop-color="#00F0FF" stop-opacity="0.62"/>
</linearGradient>
<linearGradient id="paint23_linear_17016_1401" x1="3.3951" y1="20.4805" x2="3.3951" y2="32.8896" gradientUnits="userSpaceOnUse">
<stop stop-color="#14FF00" stop-opacity="0.55"/>
<stop offset="1" stop-color="#00F0FF" stop-opacity="0.62"/>
</linearGradient>
</defs>
</svg>
