<svg width="78" height="40" viewBox="0 0 78 40" fill="none" xmlns="http://www.w3.org/2000/svg">
<path d="M47.6174 35.0009V31.6675C47.6174 29.8994 48.3198 28.2037 49.5701 26.9535C50.8203 25.7032 52.516 25.0009 54.2841 25.0009H60.9508C62.7189 25.0009 64.4146 25.7032 65.6648 26.9535C66.9151 28.2037 67.6174 29.8994 67.6174 31.6675V35.0009M50.9508 11.6675C50.9508 13.4356 51.6531 15.1313 52.9034 16.3816C54.1536 17.6318 55.8493 18.3342 57.6174 18.3342C59.3855 18.3342 61.0812 17.6318 62.3315 16.3816C63.5817 15.1313 64.2841 13.4356 64.2841 11.6675C64.2841 9.89941 63.5817 8.20372 62.3315 6.95348C61.0812 5.70323 59.3855 5.00085 57.6174 5.00085C55.8493 5.00085 54.1536 5.70323 52.9034 6.95348C51.6531 8.20372 50.9508 9.89941 50.9508 11.6675Z" stroke="white" stroke-width="2.2" stroke-linecap="square" stroke-linejoin="round"/>
<path d="M9.27661 35.0005V31.6672C9.27661 29.899 9.97899 28.2034 11.2292 26.9531C12.4795 25.7029 14.1752 25.0005 15.9433 25.0005H22.6099C24.3781 25.0005 26.0737 25.7029 27.324 26.9531C28.5742 28.2034 29.2766 29.899 29.2766 31.6672V35.0005M12.6099 11.6672C12.6099 13.4353 13.3123 15.131 14.5626 16.3812C15.8128 17.6314 17.5085 18.3338 19.2766 18.3338C21.0447 18.3338 22.7404 17.6314 23.9907 16.3812C25.2409 15.131 25.9433 13.4353 25.9433 11.6672C25.9433 9.89904 25.2409 8.20335 23.9907 6.95311C22.7404 5.70287 21.0447 5.00049 19.2766 5.00049C17.5085 5.00049 15.8128 5.70287 14.5626 6.95311C13.3123 8.20335 12.6099 9.89904 12.6099 11.6672Z" stroke="white" stroke-width="2.2" stroke-linecap="square" stroke-linejoin="round"/>
<path d="M37.3611 7.71411V11.0037H32.3611C31.3665 11.0037 30.4127 11.3988 29.7094 12.1021C29.0062 12.8053 28.6111 13.7592 28.6111 14.7537V18.5037C28.6111 20.1613 29.2696 21.751 30.4417 22.9231C31.6138 24.0952 33.2035 24.7537 34.8611 24.7537H42.3611C44.0187 24.7537 45.6084 24.0952 46.7805 22.9231C47.9526 21.751 48.6111 20.1613 48.6111 18.5037V14.7537C48.6111 13.7592 48.216 12.8053 47.5127 12.1021C46.8095 11.3988 45.8556 11.0037 44.8611 11.0037H39.8611V7.71411H37.3611ZM31.1111 14.7537C31.1111 14.4222 31.2428 14.1043 31.4772 13.8698C31.7116 13.6354 32.0296 13.5037 32.3611 13.5037H44.8611C45.1926 13.5037 45.5105 13.6354 45.745 13.8698C45.9794 14.1043 46.1111 14.4222 46.1111 14.7537V18.5037C46.1111 19.4983 45.716 20.4521 45.0127 21.1554C44.3095 21.8586 43.3556 22.2537 42.3611 22.2537H34.8611C33.8665 22.2537 32.9127 21.8586 32.2094 21.1554C31.5062 20.4521 31.1111 19.4983 31.1111 18.5037V14.7537ZM31.1111 36.0037C31.1111 34.0146 31.9013 32.1069 33.3078 30.7004C34.7143 29.2939 36.622 28.5037 38.6111 28.5037C40.6002 28.5037 42.5079 29.2939 43.9144 30.7004C45.3209 32.1069 46.1111 34.0146 46.1111 36.0037H48.6111C48.6111 33.3516 47.5575 30.808 45.6822 28.9327C43.8068 27.0573 41.2632 26.0037 38.6111 26.0037C35.9589 26.0037 33.4154 27.0573 31.54 28.9327C29.6647 30.808 28.6111 33.3516 28.6111 36.0037H31.1111Z" fill="white"/>
<rect x="35.9126" y="2.70317" width="5.3" height="4.24286" rx="1.6" stroke="white" stroke-width="1.6"/>
<path d="M36.0906 15.6047C36.9107 15.605 37.575 16.2699 37.575 17.0901C37.5747 17.91 36.9105 18.5742 36.0906 18.5745C35.2704 18.5745 34.6055 17.9102 34.6052 17.0901C34.6052 16.2698 35.2703 15.6047 36.0906 15.6047Z" stroke="white" stroke-width="1.2"/>
<path d="M41.0203 15.6047C41.8404 15.605 42.5046 16.2699 42.5046 17.0901C42.5044 17.91 41.8402 18.5742 41.0203 18.5745C40.2001 18.5745 39.5352 17.9102 39.5349 17.0901C39.5349 16.2698 40.2 15.6047 41.0203 15.6047Z" stroke="white" stroke-width="1.2"/>
</svg>
